<svg width="136" height="16" fill="none" xmlns="http://www.w3.org/2000/svg"><path d="M135.4 7.19h-3.62a.99.99 0 0 0-.23-.58 1.32 1.32 0 0 0-.53-.37 1.81 1.81 0 0 0-.71-.13c-.34 0-.63.06-.87.18-.24.13-.36.3-.35.53 0 .16.06.3.2.45.15.13.43.24.85.32l2.21.4c1.12.2 1.95.54 2.5 1.02s.82 1.12.83 1.93c0 .77-.24 1.45-.7 2.02a4.4 4.4 0 0 1-1.87 1.32c-.78.31-1.68.46-2.69.46a6.57 6.57 0 0 1-3.91-1.02 3.65 3.65 0 0 1-1.57-2.7h3.89c.05.35.22.62.51.8.3.19.66.28 1.1.28.37 0 .66-.06.9-.18.23-.13.35-.3.36-.53 0-.2-.11-.37-.31-.5a2.8 2.8 0 0 0-.94-.3l-1.93-.33a4.62 4.62 0 0 1-2.5-1.11 2.8 2.8 0 0 1-.83-2.1c0-.76.2-1.4.6-1.93.4-.53.99-.93 1.74-1.2a7.79 7.79 0 0 1 2.7-.43c1.57 0 2.81.33 3.72.98.92.66 1.4 1.56 1.44 2.72ZM116.42 11.96l.02-4.66h.52l2.64-3.66h4.4l-4.43 5.7h-1.11l-2.04 2.62Zm-3.53 2.59V0h3.92v14.55h-3.92Zm6.73 0-2.5-4.32 2.56-2.79 4.43 7.1h-4.48ZM105.62 14.74c-1.19 0-2.2-.23-3.04-.7a4.84 4.84 0 0 1-1.94-1.97 6.2 6.2 0 0 1-.67-2.95c0-1.12.22-2.1.67-2.94.45-.85 1.1-1.5 1.94-1.98a6.12 6.12 0 0 1 3.04-.7c1.07 0 2 .19 2.78.58.78.38 1.39.92 1.82 1.63.43.7.65 1.52.66 2.47h-3.64c-.05-.57-.22-1-.5-1.3-.27-.3-.63-.46-1.06-.46-.35 0-.64.1-.9.3-.25.2-.45.49-.6.89-.14.39-.2.88-.2 1.48s.06 1.1.2 1.5c.15.39.34.68.6.88.26.2.55.3.9.3.28 0 .54-.07.76-.2.23-.14.4-.34.54-.6.14-.27.23-.6.26-.97h3.64c-.02.96-.24 1.8-.67 2.51a4.28 4.28 0 0 1-1.8 1.65c-.78.39-1.71.58-2.8.58ZM94.05 9.77V3.64h3.92v10.9h-3.72v-2.07h-.12a3.1 3.1 0 0 1-1.24 1.64c-.6.38-1.3.58-2.1.58a3.6 3.6 0 0 1-3.33-1.97 4.67 4.67 0 0 1-.49-2.12V3.64h3.93v6.13c0 .54.14.97.4 1.27.28.31.67.47 1.16.47.32 0 .6-.07.84-.21.24-.14.43-.34.56-.6.13-.26.2-.57.19-.93ZM77.9 14.55V3.64h3.81V5.7h.11c.2-.77.52-1.33.95-1.68.43-.36.94-.54 1.53-.54.17 0 .33.02.5.05.17.02.33.06.49.1V7a6.45 6.45 0 0 0-1.45-.2c-.38 0-.73.09-1.04.26-.3.17-.54.41-.71.73-.18.3-.27.67-.27 1.08v5.69H77.9ZM64.45 3.18V0H77.1v3.18h-4.37v11.37h-3.9V3.18h-4.37Z" fill="#475467"/><path d="M62.5 0v14.55H58.6V0h3.92ZM51.25 14.74a6.37 6.37 0 0 1-3.01-.66 4.68 4.68 0 0 1-1.94-1.94 6.34 6.34 0 0 1-.68-3.02c0-1.13.23-2.11.68-2.96.46-.84 1.1-1.5 1.93-1.96.83-.47 1.8-.7 2.93-.7.83 0 1.57.12 2.24.38a4.69 4.69 0 0 1 2.8 2.87c.26.7.39 1.47.39 2.34V10h-9.75V7.84h6.14a1.54 1.54 0 0 0-.86-1.38c-.26-.14-.55-.21-.87-.21-.32 0-.61.07-.88.2-.26.14-.48.32-.64.56-.15.24-.24.51-.24.83v2.33c0 .35.07.66.22.94.14.27.35.49.63.64.27.16.6.24 1 .24.26 0 .5-.04.73-.12.23-.07.42-.18.58-.32.16-.15.28-.32.36-.53h3.58a4.08 4.08 0 0 1-2.7 3.27c-.75.3-1.63.45-2.64.45ZM44.84 3.64l-3.67 10.9h-4.54l-3.67-10.9h4.12l1.76 7.21h.12l1.76-7.21h4.12ZM25.06 14.72c-.7 0-1.32-.12-1.85-.35a2.78 2.78 0 0 1-1.25-1.05 3.24 3.24 0 0 1-.46-1.79c0-.6.1-1.1.31-1.52.2-.43.49-.78.85-1.05.37-.27.8-.47 1.27-.61a7.7 7.7 0 0 1 1.58-.28c.61-.05 1.1-.1 1.47-.17.37-.07.64-.17.81-.3a.6.6 0 0 0 .25-.5v-.03c0-.28-.11-.5-.33-.65-.22-.15-.5-.23-.84-.23-.37 0-.68.09-.91.25-.23.16-.37.41-.42.75h-3.6A3.72 3.72 0 0 1 24.21 4a6.36 6.36 0 0 1 2.71-.52c.78 0 1.48.1 2.1.28.62.18 1.15.43 1.59.76.43.32.76.7 1 1.14.22.43.34.9.34 1.4v7.48h-3.67V13h-.08a2.93 2.93 0 0 1-1.85 1.53c-.4.12-.83.18-1.3.18Zm1.27-2.48c.3 0 .58-.06.84-.18.27-.12.48-.3.65-.53.16-.23.25-.52.25-.85v-.9a4.54 4.54 0 0 1-.7.22 6.81 6.81 0 0 1-.87.17c-.3.05-.55.13-.74.23-.19.1-.33.24-.43.4a.98.98 0 0 0-.13.5c0 .31.1.54.32.7.21.16.48.24.81.24ZM13.45 14.55V3.64h3.8V5.7h.12c.2-.77.52-1.33.95-1.68.43-.36.94-.54 1.52-.54.17 0 .34.02.5.05.18.02.34.06.5.1V7a6.45 6.45 0 0 0-1.45-.2c-.38 0-.73.09-1.04.26-.3.17-.54.41-.71.73-.18.3-.27.67-.27 1.08v5.69h-3.92ZM0 3.18V0h12.64v3.18H8.27v11.37h-3.9V3.18H0Z" fill="#101828"/></svg>