<svg aria-hidden="true" style="position: absolute; width: 0; height: 0; overflow: hidden;" version="1.1" xmlns="http://www.w3.org/2000/svg" xmlns:xlink="http://www.w3.org/1999/xlink">
<defs>
<symbol id="logo-trucks" viewBox="0 0 272 32">
<path fill="#475467" style="fill: var(--color1, #475467)" d="M270.8 14.38h-7.24c-0.026-0.445-0.196-0.847-0.462-1.163l0.002 0.003c-0.282-0.324-0.638-0.577-1.042-0.734l-0.018-0.006c-0.399-0.165-0.863-0.261-1.349-0.261-0.025 0-0.050 0-0.075 0.001l0.004-0c-0.68 0-1.26 0.12-1.74 0.36-0.48 0.26-0.72 0.6-0.7 1.060 0 0.32 0.12 0.6 0.4 0.9 0.3 0.26 0.86 0.48 1.7 0.64l4.42 0.8c2.24 0.4 3.9 1.080 5 2.040s1.64 2.24 1.66 3.86c0 1.54-0.48 2.9-1.4 4.040-0.979 1.173-2.24 2.080-3.679 2.62l-0.061 0.020c-1.56 0.62-3.36 0.92-5.38 0.92-0.225 0.014-0.489 0.022-0.754 0.022-2.623 0-5.067-0.769-7.118-2.093l0.052 0.031c-1.757-1.219-2.944-3.153-3.138-5.372l-0.002-0.028h7.78c0.1 0.7 0.44 1.24 1.020 1.6 0.6 0.38 1.32 0.56 2.2 0.56 0.74 0 1.32-0.12 1.8-0.36 0.46-0.26 0.7-0.6 0.72-1.060 0-0.4-0.22-0.74-0.62-1-0.544-0.294-1.179-0.505-1.851-0.597l-0.029-0.003-3.86-0.66c-1.935-0.234-3.65-1.035-5.010-2.229l0.010 0.009c-1.028-1.016-1.664-2.425-1.664-3.984 0-0.076 0.002-0.152 0.005-0.227l-0 0.011c0-1.52 0.4-2.8 1.2-3.86s1.98-1.86 3.48-2.4c1.523-0.547 3.281-0.863 5.112-0.863 0.101 0 0.202 0.001 0.303 0.003l-0.015-0c3.14 0 5.62 0.66 7.44 1.96 1.84 1.32 2.8 3.12 2.88 5.44zM232.84 23.92l0.040-9.32h1.040l5.28-7.32h8.8l-8.86 11.4h-2.22l-4.080 5.24zM225.78 29.1v-29.1h7.84v29.1h-7.84zM239.24 29.1l-5-8.64 5.12-5.58 8.86 14.2h-8.96zM211.24 29.48c-2.38 0-4.4-0.46-6.080-1.4-1.656-0.924-2.98-2.267-3.855-3.889l-0.025-0.051c-0.847-1.633-1.343-3.565-1.343-5.613 0-0.101 0.001-0.201 0.004-0.302l-0 0.015c0-2.24 0.44-4.2 1.34-5.88 0.9-1.7 2.2-3 3.88-3.96 1.651-0.886 3.613-1.406 5.696-1.406 0.135 0 0.27 0.002 0.404 0.007l-0.020-0c2.14 0 4 0.38 5.56 1.16 1.56 0.76 2.78 1.84 3.64 3.26 0.86 1.4 1.3 3.040 1.32 4.94h-7.28c-0.1-1.14-0.44-2-1-2.6-0.54-0.6-1.26-0.92-2.12-0.92-0.7 0-1.28 0.2-1.8 0.6-0.5 0.4-0.9 0.98-1.2 1.78-0.28 0.78-0.4 1.76-0.4 2.96s0.12 2.2 0.4 3c0.3 0.78 0.68 1.36 1.2 1.76s1.1 0.6 1.8 0.6c0.56 0 1.080-0.14 1.52-0.4 0.46-0.28 0.8-0.68 1.080-1.2 0.28-0.54 0.46-1.2 0.52-1.94h7.28c-0.040 1.92-0.48 3.6-1.34 5.020-0.864 1.425-2.089 2.554-3.55 3.278l-0.050 0.022c-1.56 0.78-3.42 1.16-5.6 1.16zM188.1 19.54v-12.26h7.84v21.8h-7.44v-4.14h-0.24c-0.447 1.372-1.319 2.503-2.458 3.266l-0.022 0.014c-1.2 0.76-2.6 1.16-4.2 1.16-0.071 0.003-0.155 0.004-0.238 0.004-2.788 0-5.207-1.585-6.403-3.904l-0.019-0.040c-0.618-1.214-0.98-2.647-0.98-4.165 0-0.026 0-0.052 0-0.079l-0 0.004v-13.92h7.86v12.26c0 1.080 0.28 1.94 0.8 2.54 0.56 0.62 1.34 0.94 2.32 0.94 0.64 0 1.2-0.14 1.68-0.42s0.86-0.68 1.12-1.2c0.26-0.52 0.4-1.14 0.38-1.86zM155.8 29.1v-21.82h7.62v4.12h0.22c0.4-1.54 1.040-2.66 1.9-3.36 0.86-0.72 1.88-1.080 3.060-1.080 0.34 0 0.66 0.040 1 0.1 0.34 0.040 0.66 0.12 0.98 0.2v6.74c-0.863-0.231-1.859-0.375-2.884-0.4l-0.016-0c-0.76 0-1.46 0.18-2.080 0.52-0.6 0.34-1.080 0.82-1.42 1.46-0.36 0.6-0.54 1.34-0.54 2.16v11.38h-7.84zM128.9 6.36v-6.36h25.3v6.36h-8.74v22.74h-7.8v-22.74h-8.74z"></path>
<path fill="#101828" style="fill: var(--color2, #101828)" d="M125 0v29.1h-7.8v-29.1h7.84zM102.5 29.48c-0.108 0.003-0.235 0.005-0.362 0.005-2.061 0-4.008-0.489-5.731-1.359l0.073 0.033c-1.66-0.893-2.987-2.22-3.856-3.83l-0.025-0.050c-0.86-1.665-1.364-3.634-1.364-5.721 0-0.112 0.001-0.224 0.004-0.335l-0 0.016c0-2.26 0.46-4.22 1.36-5.92 0.92-1.68 2.2-3 3.86-3.92 1.66-0.94 3.6-1.4 5.86-1.4 1.66 0 3.14 0.24 4.48 0.76 2.635 0.999 4.664 3.074 5.58 5.674l0.020 0.066c0.52 1.4 0.78 2.94 0.78 4.68v1.82h-19.5v-4.32h12.28c-0.001-1.204-0.694-2.247-1.702-2.752l-0.018-0.008c-0.52-0.28-1.1-0.42-1.74-0.42s-1.22 0.14-1.76 0.4c-0.52 0.28-0.96 0.64-1.28 1.12-0.3 0.48-0.48 1.020-0.48 1.66v4.66c0 0.7 0.14 1.32 0.44 1.88 0.28 0.54 0.7 0.98 1.26 1.28 0.54 0.32 1.2 0.48 2 0.48 0.52 0 1-0.080 1.46-0.24 0.46-0.14 0.84-0.36 1.16-0.64 0.32-0.3 0.56-0.64 0.72-1.060h7.16c-0.454 3.055-2.548 5.529-5.343 6.522l-0.057 0.018c-1.5 0.6-3.26 0.9-5.28 0.9zM89.68 7.28l-7.34 21.8h-9.080l-7.34-21.8h8.24l3.52 14.42h0.24l3.52-14.42h8.24zM50.12 29.44c-1.4 0-2.64-0.24-3.7-0.7-1.041-0.449-1.893-1.172-2.487-2.079l-0.013-0.021c-0.581-0.952-0.925-2.104-0.925-3.336 0-0.086 0.002-0.171 0.005-0.256l-0 0.012c0-1.2 0.2-2.2 0.62-3.040 0.4-0.86 0.98-1.56 1.7-2.1 0.74-0.54 1.6-0.94 2.54-1.22 0.923-0.277 2-0.476 3.11-0.557l0.050-0.003c1.22-0.1 2.2-0.2 2.94-0.34s1.28-0.34 1.62-0.6c0.304-0.22 0.5-0.575 0.5-0.975 0-0.009-0-0.018-0-0.026l0 0.001v-0.060c0-0.56-0.22-1-0.66-1.3s-1-0.46-1.68-0.46c-0.74 0-1.36 0.18-1.82 0.5s-0.74 0.82-0.84 1.5h-7.2c0.191-2.874 1.986-5.286 4.492-6.362l0.048-0.018c1.488-0.661 3.224-1.045 5.050-1.045 0.13 0 0.26 0.002 0.389 0.006l-0.019-0c1.56 0 2.96 0.2 4.2 0.56s2.3 0.86 3.18 1.52c0.86 0.64 1.52 1.4 2 2.28 0.44 0.86 0.68 1.8 0.68 2.8v14.96h-7.34v-3.080h-0.16c-0.745 1.489-2.064 2.599-3.659 3.050l-0.041 0.010c-0.8 0.24-1.66 0.36-2.6 0.36zM52.66 24.48c0.6 0 1.16-0.12 1.68-0.36 0.54-0.24 0.96-0.6 1.3-1.060 0.32-0.46 0.5-1.040 0.5-1.7v-1.8c-0.389 0.164-0.856 0.315-1.339 0.428l-0.061 0.012c-0.479 0.134-1.069 0.253-1.671 0.332l-0.069 0.008c-0.6 0.1-1.1 0.26-1.48 0.46s-0.66 0.48-0.86 0.8c-0.164 0.28-0.26 0.617-0.26 0.976 0 0.009 0 0.017 0 0.026v-0.001c0 0.62 0.2 1.080 0.64 1.4 0.42 0.32 0.96 0.48 1.62 0.48zM26.9 29.1v-21.82h7.6v4.12h0.24c0.4-1.54 1.040-2.66 1.9-3.36 0.86-0.72 1.88-1.080 3.040-1.080 0.34 0 0.68 0.040 1 0.1 0.36 0.040 0.68 0.12 1 0.2v6.74c-0.863-0.231-1.859-0.375-2.884-0.4l-0.016-0c-0.76 0-1.46 0.18-2.080 0.52-0.6 0.34-1.080 0.82-1.42 1.46-0.36 0.6-0.54 1.34-0.54 2.16v11.38h-7.84zM0 6.36v-6.36h25.28v6.36h-8.74v22.74h-7.8v-22.74h-8.74z"></path>
</symbol>
</defs>
</svg>
